<?xml version="1.0" standalone="no"?>
<!DOCTYPE svg PUBLIC "-//W3C//DTD SVG 20010904//EN"
 "http://www.w3.org/TR/2001/REC-SVG-20010904/DTD/svg10.dtd">
<svg version="1.0" xmlns="http://www.w3.org/2000/svg"
 width="260.000000pt" height="260.000000pt" viewBox="0 0 260.000000 260.000000"
 preserveAspectRatio="xMidYMid meet">
<metadata>
Created by potrace 1.14, written by Peter Selinger 2001-2017
</metadata>
<g transform="translate(0.000000,260.000000) scale(0.100000,-0.100000)"
fill="#000000" stroke="none">
<path d="M244 2575 c-9 -14 -23 -25 -30 -25 -8 0 -14 -7 -14 -15 0 -21 -20
-19 -21 3 0 13 -2 14 -6 2 -8 -19 -33 -44 -33 -33 -1 4 -8 -5 -16 -21 -13 -22
-18 -26 -25 -15 -7 11 -9 10 -9 -3 0 -21 -16 -24 -23 -5 -3 6 -6 1 -7 -13 l-1
-25 -13 24 c-13 24 -13 24 -20 -13 -4 -20 -11 -36 -16 -36 -6 0 -10 -445 -10
-1200 l0 -1200 1300 0 1300 0 0 1300 0 1300 -1145 0 c-884 0 -1145 -3 -1145
-12 0 -9 -3 -9 -12 0 -19 19 -36 14 -54 -13z m393 -247 c-3 -8 -6 -5 -6 6 -1
11 2 17 5 13 3 -3 4 -12 1 -19z m50 -74 c-3 -3 -12 -4 -19 -1 -8 3 -5 6 6 6
11 1 17 -2 13 -5z m861 -52 c23 -5 45 -12 48 -15 3 -3 -10 -81 -30 -173 -20
-92 -35 -168 -34 -169 2 -1 41 -9 88 -19 169 -35 291 -120 352 -244 29 -58 33
-79 36 -158 5 -117 -10 -185 -59 -285 -96 -190 -277 -304 -531 -332 l-113 -13
-20 -94 -20 -95 -146 -3 -146 -3 20 96 c17 77 18 98 8 104 -7 5 -44 11 -82 15
-180 16 -316 126 -365 294 -19 63 -20 208 -3 278 56 230 275 390 610 444 l75
12 30 142 c36 165 41 156 -86 136 -104 -17 -170 -44 -211 -86 -33 -34 -34 -38
-33 -110 l0 -74 -40 1 c-104 2 -161 56 -154 147 4 43 11 59 39 88 54 56 177
105 313 124 72 10 393 4 454 -8z m-1311 -377 c0 -8 -4 -12 -9 -9 -5 3 -6 10
-3 15 9 13 12 11 12 -6z m78 -14 c-3 -6 -11 -11 -16 -11 -5 0 -4 6 3 14 14 16
24 13 13 -3z m9 -185 c-5 -14 -34 -18 -34 -4 0 4 5 8 11 8 5 0 7 4 4 10 -3 5
0 7 9 4 8 -3 13 -11 10 -18z m-100 -38 c3 -17 2 -36 -3 -42 -6 -7 -6 -17 -1
-26 13 -20 12 -33 0 -25 -5 3 -10 -1 -10 -10 0 -9 -4 -13 -10 -10 -16 10 -11
-17 8 -39 11 -13 12 -17 2 -10 -8 6 -27 10 -42 7 -23 -3 -26 -1 -21 13 5 14 3
16 -11 11 -11 -4 -15 -3 -11 4 4 6 13 8 20 5 8 -3 19 3 27 11 11 14 11 16 -4
11 -9 -4 -19 -1 -22 7 -3 9 0 12 8 9 8 -3 17 -1 21 5 3 7 -3 11 -15 11 -12 0
-19 4 -15 9 3 5 1 13 -5 16 -8 5 -8 11 0 20 7 8 9 19 5 25 -3 5 0 10 7 10 10
0 10 2 -1 9 -11 7 -7 10 15 13 42 5 51 0 58 -34z m120 -49 c-8 -14 -24 -10
-24 6 0 9 6 12 15 9 8 -4 12 -10 9 -15z m-159 -129 c3 -5 1 -10 -4 -10 -6 0
-11 5 -11 10 0 6 2 10 4 10 3 0 8 -4 11 -10z m-10 -49 c3 -5 2 -12 -3 -15 -5
-3 -9 1 -9 9 0 17 3 19 12 6z"/>
<path d="M1124 1710 c-82 -29 -96 -38 -89 -61 6 -19 5 -20 -15 -9 -20 11 -27
6 -80 -50 -87 -91 -120 -190 -120 -365 0 -151 48 -252 144 -300 27 -14 55 -25
61 -25 11 0 16 22 114 495 34 160 63 300 66 313 7 27 -9 28 -81 2z"/>
<path d="M1505 1718 c-5 -13 -175 -807 -175 -816 0 -13 102 13 157 39 109 52
199 177 238 329 12 47 16 94 13 170 -3 93 -7 111 -32 158 -33 59 -76 96 -137
117 -51 18 -58 18 -64 3z"/>
</g>
</svg>
